<svg id="svgQrWrapper" viewBox="0 0 300 300" xmlns="http://www.w3.org/2000/svg" xmlns:xlink="http://www.w3.org/1999/xlink" style="width: 100%; height: 100%; background-color: rgb(255, 255, 255);"><svg fill="#000000" xmlns="http://www.w3.org/2000/svg" width="300" height="300" viewBox="0 0 300 300"><path d="M243,1.7h-186a10.25,10.25,0,0,0-10.2,10.12v186A10.13,10.13,0,0,0,57,208H243a10.13,10.13,0,0,0,10.12-10.12v-186A10.13,10.13,0,0,0,243,1.7Zm2.36,193.05a5.46,5.46,0,0,1-5.47,5.47H60.16a5.46,5.46,0,0,1-5.47-5.47V14.93a5.46,5.46,0,0,1,5.47-5.47H239.91a5.46,5.46,0,0,1,5.47,5.47Z"/><path d="M243.54,238.81H173.61a2.29,2.29,0,0,1-1.62-.67l-20.55-20.55a2.33,2.33,0,0,0-3.25,0l-20.55,20.55a2.29,2.29,0,0,1-1.62.67H56.09A9.15,9.15,0,0,0,46.93,248v41.17a9.16,9.16,0,0,0,9.16,9.16H243.61a9.09,9.09,0,0,0,9.09-9.16V248A9.16,9.16,0,0,0,243.54,238.81Z"/><g transform="translate(60, 15)scale(0.6)" fill="none"><svg width="300" height="300"><style>.background-color{ fill: #fff; }.dot-color{ fill: #000000; }.corners-square-color-0-0{ fill: #000000; }.corners-dot-color-0-0{ fill: #000000; }.corners-square-color-1-0{ fill: #000000; }.corners-dot-color-1-0{ fill: #000000; }.corners-square-color-0-1{ fill: #000000; }.corners-dot-color-0-1{ fill: #000000; }</style><defs/><g class="dot-color"><rect x="1" y="82" width="9" height="9" transform="rotate(0,5.5,86.5)"/><rect x="1" y="91" width="9" height="9" transform="rotate(0,5.5,95.5)"/><rect x="1" y="109" width="9" height="9" transform="rotate(0,5.5,113.5)"/><rect x="1" y="118" width="9" height="9" transform="rotate(0,5.5,122.5)"/><rect x="1" y="127" width="9" height="9" transform="rotate(0,5.5,131.5)"/><rect x="1" y="136" width="9" height="9" transform="rotate(0,5.5,140.5)"/><rect x="1" y="145" width="9" height="9" transform="rotate(0,5.5,149.5)"/><rect x="1" y="172" width="9" height="9" transform="rotate(0,5.5,176.5)"/><rect x="1" y="208" width="9" height="9" transform="rotate(0,5.5,212.5)"/><rect x="1" y="217" width="9" height="9" transform="rotate(0,5.5,221.5)"/><rect x="10" y="73" width="9" height="9" transform="rotate(0,14.5,77.5)"/><rect x="10" y="82" width="9" height="9" transform="rotate(0,14.5,86.5)"/><rect x="10" y="109" width="9" height="9" transform="rotate(0,14.5,113.5)"/><rect x="10" y="118" width="9" height="9" transform="rotate(0,14.5,122.5)"/><rect x="10" y="145" width="9" height="9" transform="rotate(0,14.5,149.5)"/><rect x="10" y="154" width="9" height="9" transform="rotate(0,14.5,158.5)"/><rect x="10" y="181" width="9" height="9" transform="rotate(0,14.5,185.5)"/><rect x="10" y="190" width="9" height="9" transform="rotate(0,14.5,194.5)"/><rect x="10" y="217" width="9" height="9" transform="rotate(0,14.5,221.5)"/><rect x="19" y="82" width="9" height="9" transform="rotate(0,23.5,86.5)"/><rect x="19" y="91" width="9" height="9" transform="rotate(0,23.5,95.5)"/><rect x="19" y="136" width="9" height="9" transform="rotate(0,23.5,140.5)"/><rect x="19" y="145" width="9" height="9" transform="rotate(0,23.5,149.5)"/><rect x="19" y="154" width="9" height="9" transform="rotate(0,23.5,158.5)"/><rect x="19" y="163" width="9" height="9" transform="rotate(0,23.5,167.5)"/><rect x="19" y="181" width="9" height="9" transform="rotate(0,23.5,185.5)"/><rect x="19" y="190" width="9" height="9" transform="rotate(0,23.5,194.5)"/><rect x="28" y="100" width="9" height="9" transform="rotate(0,32.5,104.5)"/><rect x="28" y="109" width="9" height="9" transform="rotate(0,32.5,113.5)"/><rect x="28" y="118" width="9" height="9" transform="rotate(0,32.5,122.5)"/><rect x="28" y="136" width="9" height="9" transform="rotate(0,32.5,140.5)"/><rect x="28" y="154" width="9" height="9" transform="rotate(0,32.5,158.5)"/><rect x="28" y="163" width="9" height="9" transform="rotate(0,32.5,167.5)"/><rect x="28" y="217" width="9" height="9" transform="rotate(0,32.5,221.5)"/><rect x="37" y="100" width="9" height="9" transform="rotate(0,41.5,104.5)"/><rect x="37" y="154" width="9" height="9" transform="rotate(0,41.5,158.5)"/><rect x="37" y="181" width="9" height="9" transform="rotate(0,41.5,185.5)"/><rect x="37" y="217" width="9" height="9" transform="rotate(0,41.5,221.5)"/><rect x="46" y="73" width="9" height="9" transform="rotate(0,50.5,77.5)"/><rect x="46" y="82" width="9" height="9" transform="rotate(0,50.5,86.5)"/><rect x="46" y="91" width="9" height="9" transform="rotate(0,50.5,95.5)"/><rect x="46" y="118" width="9" height="9" transform="rotate(0,50.5,122.5)"/><rect x="46" y="127" width="9" height="9" transform="rotate(0,50.5,131.5)"/><rect x="46" y="136" width="9" height="9" transform="rotate(0,50.5,140.5)"/><rect x="46" y="145" width="9" height="9" transform="rotate(0,50.5,149.5)"/><rect x="46" y="154" width="9" height="9" transform="rotate(0,50.5,158.5)"/><rect x="46" y="163" width="9" height="9" transform="rotate(0,50.5,167.5)"/><rect x="46" y="181" width="9" height="9" transform="rotate(0,50.5,185.5)"/><rect x="46" y="199" width="9" height="9" transform="rotate(0,50.5,203.5)"/><rect x="55" y="73" width="9" height="9" transform="rotate(0,59.5,77.5)"/><rect x="55" y="91" width="9" height="9" transform="rotate(0,59.5,95.5)"/><rect x="55" y="109" width="9" height="9" transform="rotate(0,59.5,113.5)"/><rect x="55" y="127" width="9" height="9" transform="rotate(0,59.5,131.5)"/><rect x="55" y="145" width="9" height="9" transform="rotate(0,59.5,149.5)"/><rect x="55" y="163" width="9" height="9" transform="rotate(0,59.5,167.5)"/><rect x="55" y="181" width="9" height="9" transform="rotate(0,59.5,185.5)"/><rect x="55" y="199" width="9" height="9" transform="rotate(0,59.5,203.5)"/><rect x="55" y="217" width="9" height="9" transform="rotate(0,59.5,221.5)"/><rect x="64" y="73" width="9" height="9" transform="rotate(0,68.5,77.5)"/><rect x="64" y="91" width="9" height="9" transform="rotate(0,68.5,95.5)"/><rect x="64" y="100" width="9" height="9" transform="rotate(0,68.5,104.5)"/><rect x="64" y="109" width="9" height="9" transform="rotate(0,68.5,113.5)"/><rect x="64" y="127" width="9" height="9" transform="rotate(0,68.5,131.5)"/><rect x="64" y="136" width="9" height="9" transform="rotate(0,68.5,140.5)"/><rect x="64" y="145" width="9" height="9" transform="rotate(0,68.5,149.5)"/><rect x="64" y="154" width="9" height="9" transform="rotate(0,68.5,158.5)"/><rect x="64" y="163" width="9" height="9" transform="rotate(0,68.5,167.5)"/><rect x="64" y="172" width="9" height="9" transform="rotate(0,68.5,176.5)"/><rect x="64" y="181" width="9" height="9" transform="rotate(0,68.5,185.5)"/><rect x="64" y="190" width="9" height="9" transform="rotate(0,68.5,194.5)"/><rect x="64" y="199" width="9" height="9" transform="rotate(0,68.5,203.5)"/><rect x="64" y="208" width="9" height="9" transform="rotate(0,68.5,212.5)"/><rect x="73" y="37" width="9" height="9" transform="rotate(0,77.5,41.5)"/><rect x="73" y="46" width="9" height="9" transform="rotate(0,77.5,50.5)"/><rect x="73" y="55" width="9" height="9" transform="rotate(0,77.5,59.5)"/><rect x="73" y="64" width="9" height="9" transform="rotate(0,77.5,68.5)"/><rect x="73" y="100" width="9" height="9" transform="rotate(0,77.5,104.5)"/><rect x="73" y="118" width="9" height="9" transform="rotate(0,77.5,122.5)"/><rect x="73" y="136" width="9" height="9" transform="rotate(0,77.5,140.5)"/><rect x="73" y="154" width="9" height="9" transform="rotate(0,77.5,158.5)"/><rect x="73" y="163" width="9" height="9" transform="rotate(0,77.5,167.5)"/><rect x="73" y="190" width="9" height="9" transform="rotate(0,77.5,194.5)"/><rect x="73" y="199" width="9" height="9" transform="rotate(0,77.5,203.5)"/><rect x="73" y="217" width="9" height="9" transform="rotate(0,77.5,221.5)"/><rect x="73" y="235" width="9" height="9" transform="rotate(0,77.5,239.5)"/><rect x="73" y="244" width="9" height="9" transform="rotate(0,77.5,248.5)"/><rect x="73" y="280" width="9" height="9" transform="rotate(0,77.5,284.5)"/><rect x="82" y="10" width="9" height="9" transform="rotate(0,86.5,14.5)"/><rect x="82" y="46" width="9" height="9" transform="rotate(0,86.5,50.5)"/><rect x="82" y="64" width="9" height="9" transform="rotate(0,86.5,68.5)"/><rect x="82" y="73" width="9" height="9" transform="rotate(0,86.5,77.5)"/><rect x="82" y="82" width="9" height="9" transform="rotate(0,86.5,86.5)"/><rect x="82" y="91" width="9" height="9" transform="rotate(0,86.5,95.5)"/><rect x="82" y="100" width="9" height="9" transform="rotate(0,86.5,104.5)"/><rect x="82" y="109" width="9" height="9" transform="rotate(0,86.5,113.5)"/><rect x="82" y="145" width="9" height="9" transform="rotate(0,86.5,149.5)"/><rect x="82" y="154" width="9" height="9" transform="rotate(0,86.5,158.5)"/><rect x="82" y="163" width="9" height="9" transform="rotate(0,86.5,167.5)"/><rect x="82" y="172" width="9" height="9" transform="rotate(0,86.5,176.5)"/><rect x="82" y="181" width="9" height="9" transform="rotate(0,86.5,185.5)"/><rect x="82" y="190" width="9" height="9" transform="rotate(0,86.5,194.5)"/><rect x="82" y="199" width="9" height="9" transform="rotate(0,86.5,203.5)"/><rect x="82" y="244" width="9" height="9" transform="rotate(0,86.5,248.5)"/><rect x="82" y="262" width="9" height="9" transform="rotate(0,86.5,266.5)"/><rect x="82" y="280" width="9" height="9" transform="rotate(0,86.5,284.5)"/><rect x="91" y="1" width="9" height="9" transform="rotate(0,95.5,5.5)"/><rect x="91" y="10" width="9" height="9" transform="rotate(0,95.5,14.5)"/><rect x="91" y="28" width="9" height="9" transform="rotate(0,95.5,32.5)"/><rect x="91" y="37" width="9" height="9" transform="rotate(0,95.5,41.5)"/><rect x="91" y="46" width="9" height="9" transform="rotate(0,95.5,50.5)"/><rect x="91" y="55" width="9" height="9" transform="rotate(0,95.5,59.5)"/><rect x="91" y="64" width="9" height="9" transform="rotate(0,95.5,68.5)"/><rect x="91" y="73" width="9" height="9" transform="rotate(0,95.5,77.5)"/><rect x="91" y="91" width="9" height="9" transform="rotate(0,95.5,95.5)"/><rect x="91" y="109" width="9" height="9" transform="rotate(0,95.5,113.5)"/><rect x="91" y="118" width="9" height="9" transform="rotate(0,95.5,122.5)"/><rect x="91" y="127" width="9" height="9" transform="rotate(0,95.5,131.5)"/><rect x="91" y="136" width="9" height="9" transform="rotate(0,95.5,140.5)"/><rect x="91" y="145" width="9" height="9" transform="rotate(0,95.5,149.5)"/><rect x="91" y="208" width="9" height="9" transform="rotate(0,95.5,212.5)"/><rect x="91" y="244" width="9" height="9" transform="rotate(0,95.5,248.5)"/><rect x="91" y="253" width="9" height="9" transform="rotate(0,95.5,257.5)"/><rect x="91" y="271" width="9" height="9" transform="rotate(0,95.5,275.5)"/><rect x="91" y="280" width="9" height="9" transform="rotate(0,95.5,284.5)"/><rect x="100" y="10" width="9" height="9" transform="rotate(0,104.5,14.5)"/><rect x="100" y="28" width="9" height="9" transform="rotate(0,104.5,32.5)"/><rect x="100" y="64" width="9" height="9" transform="rotate(0,104.5,68.5)"/><rect x="100" y="91" width="9" height="9" transform="rotate(0,104.5,95.5)"/><rect x="100" y="100" width="9" height="9" transform="rotate(0,104.5,104.5)"/><rect x="100" y="127" width="9" height="9" transform="rotate(0,104.5,131.5)"/><rect x="100" y="136" width="9" height="9" transform="rotate(0,104.5,140.5)"/><rect x="100" y="163" width="9" height="9" transform="rotate(0,104.5,167.5)"/><rect x="100" y="172" width="9" height="9" transform="rotate(0,104.5,176.5)"/><rect x="100" y="181" width="9" height="9" transform="rotate(0,104.5,185.5)"/><rect x="100" y="199" width="9" height="9" transform="rotate(0,104.5,203.5)"/><rect x="100" y="226" width="9" height="9" transform="rotate(0,104.5,230.5)"/><rect x="100" y="253" width="9" height="9" transform="rotate(0,104.5,257.5)"/><rect x="100" y="280" width="9" height="9" transform="rotate(0,104.5,284.5)"/><rect x="109" y="1" width="9" height="9" transform="rotate(0,113.5,5.5)"/><rect x="109" y="19" width="9" height="9" transform="rotate(0,113.5,23.5)"/><rect x="109" y="28" width="9" height="9" transform="rotate(0,113.5,32.5)"/><rect x="109" y="55" width="9" height="9" transform="rotate(0,113.5,59.5)"/><rect x="109" y="73" width="9" height="9" transform="rotate(0,113.5,77.5)"/><rect x="109" y="82" width="9" height="9" transform="rotate(0,113.5,86.5)"/><rect x="109" y="100" width="9" height="9" transform="rotate(0,113.5,104.5)"/><rect x="109" y="127" width="9" height="9" transform="rotate(0,113.5,131.5)"/><rect x="109" y="136" width="9" height="9" transform="rotate(0,113.5,140.5)"/><rect x="109" y="145" width="9" height="9" transform="rotate(0,113.5,149.5)"/><rect x="109" y="163" width="9" height="9" transform="rotate(0,113.5,167.5)"/><rect x="109" y="172" width="9" height="9" transform="rotate(0,113.5,176.5)"/><rect x="109" y="181" width="9" height="9" transform="rotate(0,113.5,185.5)"/><rect x="109" y="199" width="9" height="9" transform="rotate(0,113.5,203.5)"/><rect x="109" y="217" width="9" height="9" transform="rotate(0,113.5,221.5)"/><rect x="109" y="235" width="9" height="9" transform="rotate(0,113.5,239.5)"/><rect x="109" y="271" width="9" height="9" transform="rotate(0,113.5,275.5)"/><rect x="118" y="10" width="9" height="9" transform="rotate(0,122.5,14.5)"/><rect x="118" y="19" width="9" height="9" transform="rotate(0,122.5,23.5)"/><rect x="118" y="91" width="9" height="9" transform="rotate(0,122.5,95.5)"/><rect x="118" y="109" width="9" height="9" transform="rotate(0,122.5,113.5)"/><rect x="118" y="118" width="9" height="9" transform="rotate(0,122.5,122.5)"/><rect x="118" y="136" width="9" height="9" transform="rotate(0,122.5,140.5)"/><rect x="118" y="154" width="9" height="9" transform="rotate(0,122.5,158.5)"/><rect x="118" y="163" width="9" height="9" transform="rotate(0,122.5,167.5)"/><rect x="118" y="172" width="9" height="9" transform="rotate(0,122.5,176.5)"/><rect x="118" y="190" width="9" height="9" transform="rotate(0,122.5,194.5)"/><rect x="118" y="208" width="9" height="9" transform="rotate(0,122.5,212.5)"/><rect x="118" y="244" width="9" height="9" transform="rotate(0,122.5,248.5)"/><rect x="118" y="253" width="9" height="9" transform="rotate(0,122.5,257.5)"/><rect x="118" y="262" width="9" height="9" transform="rotate(0,122.5,266.5)"/><rect x="118" y="280" width="9" height="9" transform="rotate(0,122.5,284.5)"/><rect x="127" y="19" width="9" height="9" transform="rotate(0,131.5,23.5)"/><rect x="127" y="28" width="9" height="9" transform="rotate(0,131.5,32.5)"/><rect x="127" y="37" width="9" height="9" transform="rotate(0,131.5,41.5)"/><rect x="127" y="46" width="9" height="9" transform="rotate(0,131.5,50.5)"/><rect x="127" y="55" width="9" height="9" transform="rotate(0,131.5,59.5)"/><rect x="127" y="82" width="9" height="9" transform="rotate(0,131.5,86.5)"/><rect x="127" y="91" width="9" height="9" transform="rotate(0,131.5,95.5)"/><rect x="127" y="100" width="9" height="9" transform="rotate(0,131.5,104.5)"/><rect x="127" y="118" width="9" height="9" transform="rotate(0,131.5,122.5)"/><rect x="127" y="127" width="9" height="9" transform="rotate(0,131.5,131.5)"/><rect x="127" y="136" width="9" height="9" transform="rotate(0,131.5,140.5)"/><rect x="127" y="145" width="9" height="9" transform="rotate(0,131.5,149.5)"/><rect x="127" y="154" width="9" height="9" transform="rotate(0,131.5,158.5)"/><rect x="127" y="163" width="9" height="9" transform="rotate(0,131.5,167.5)"/><rect x="127" y="208" width="9" height="9" transform="rotate(0,131.5,212.5)"/><rect x="127" y="244" width="9" height="9" transform="rotate(0,131.5,248.5)"/><rect x="127" y="262" width="9" height="9" transform="rotate(0,131.5,266.5)"/><rect x="127" y="271" width="9" height="9" transform="rotate(0,131.5,275.5)"/><rect x="127" y="280" width="9" height="9" transform="rotate(0,131.5,284.5)"/><rect x="136" y="37" width="9" height="9" transform="rotate(0,140.5,41.5)"/><rect x="136" y="73" width="9" height="9" transform="rotate(0,140.5,77.5)"/><rect x="136" y="82" width="9" height="9" transform="rotate(0,140.5,86.5)"/><rect x="136" y="100" width="9" height="9" transform="rotate(0,140.5,104.5)"/><rect x="136" y="109" width="9" height="9" transform="rotate(0,140.5,113.5)"/><rect x="136" y="118" width="9" height="9" transform="rotate(0,140.5,122.5)"/><rect x="136" y="127" width="9" height="9" transform="rotate(0,140.5,131.5)"/><rect x="136" y="145" width="9" height="9" transform="rotate(0,140.5,149.5)"/><rect x="136" y="154" width="9" height="9" transform="rotate(0,140.5,158.5)"/><rect x="136" y="172" width="9" height="9" transform="rotate(0,140.5,176.5)"/><rect x="136" y="181" width="9" height="9" transform="rotate(0,140.5,185.5)"/><rect x="136" y="190" width="9" height="9" transform="rotate(0,140.5,194.5)"/><rect x="136" y="217" width="9" height="9" transform="rotate(0,140.5,221.5)"/><rect x="136" y="226" width="9" height="9" transform="rotate(0,140.5,230.5)"/><rect x="136" y="235" width="9" height="9" transform="rotate(0,140.5,239.5)"/><rect x="136" y="271" width="9" height="9" transform="rotate(0,140.5,275.5)"/><rect x="136" y="289" width="9" height="9" transform="rotate(0,140.5,293.5)"/><rect x="145" y="1" width="9" height="9" transform="rotate(0,149.5,5.5)"/><rect x="145" y="19" width="9" height="9" transform="rotate(0,149.5,23.5)"/><rect x="145" y="28" width="9" height="9" transform="rotate(0,149.5,32.5)"/><rect x="145" y="55" width="9" height="9" transform="rotate(0,149.5,59.5)"/><rect x="145" y="64" width="9" height="9" transform="rotate(0,149.5,68.5)"/><rect x="145" y="73" width="9" height="9" transform="rotate(0,149.5,77.5)"/><rect x="145" y="100" width="9" height="9" transform="rotate(0,149.5,104.5)"/><rect x="145" y="109" width="9" height="9" transform="rotate(0,149.5,113.5)"/><rect x="145" y="145" width="9" height="9" transform="rotate(0,149.5,149.5)"/><rect x="145" y="154" width="9" height="9" transform="rotate(0,149.5,158.5)"/><rect x="145" y="163" width="9" height="9" transform="rotate(0,149.5,167.5)"/><rect x="145" y="181" width="9" height="9" transform="rotate(0,149.5,185.5)"/><rect x="145" y="190" width="9" height="9" transform="rotate(0,149.5,194.5)"/><rect x="145" y="208" width="9" height="9" transform="rotate(0,149.5,212.5)"/><rect x="145" y="235" width="9" height="9" transform="rotate(0,149.5,239.5)"/><rect x="145" y="271" width="9" height="9" transform="rotate(0,149.5,275.5)"/><rect x="145" y="280" width="9" height="9" transform="rotate(0,149.5,284.5)"/><rect x="154" y="37" width="9" height="9" transform="rotate(0,158.5,41.5)"/><rect x="154" y="46" width="9" height="9" transform="rotate(0,158.5,50.5)"/><rect x="154" y="73" width="9" height="9" transform="rotate(0,158.5,77.5)"/><rect x="154" y="91" width="9" height="9" transform="rotate(0,158.5,95.5)"/><rect x="154" y="109" width="9" height="9" transform="rotate(0,158.5,113.5)"/><rect x="154" y="118" width="9" height="9" transform="rotate(0,158.5,122.5)"/><rect x="154" y="127" width="9" height="9" transform="rotate(0,158.5,131.5)"/><rect x="154" y="136" width="9" height="9" transform="rotate(0,158.5,140.5)"/><rect x="154" y="145" width="9" height="9" transform="rotate(0,158.5,149.5)"/><rect x="154" y="190" width="9" height="9" transform="rotate(0,158.5,194.5)"/><rect x="154" y="208" width="9" height="9" transform="rotate(0,158.5,212.5)"/><rect x="154" y="217" width="9" height="9" transform="rotate(0,158.5,221.5)"/><rect x="154" y="226" width="9" height="9" transform="rotate(0,158.5,230.5)"/><rect x="154" y="235" width="9" height="9" transform="rotate(0,158.5,239.5)"/><rect x="154" y="244" width="9" height="9" transform="rotate(0,158.5,248.5)"/><rect x="154" y="280" width="9" height="9" transform="rotate(0,158.5,284.5)"/><rect x="154" y="289" width="9" height="9" transform="rotate(0,158.5,293.5)"/><rect x="163" y="1" width="9" height="9" transform="rotate(0,167.5,5.5)"/><rect x="163" y="37" width="9" height="9" transform="rotate(0,167.5,41.5)"/><rect x="163" y="46" width="9" height="9" transform="rotate(0,167.5,50.5)"/><rect x="163" y="55" width="9" height="9" transform="rotate(0,167.5,59.5)"/><rect x="163" y="64" width="9" height="9" transform="rotate(0,167.5,68.5)"/><rect x="163" y="73" width="9" height="9" transform="rotate(0,167.5,77.5)"/><rect x="163" y="82" width="9" height="9" transform="rotate(0,167.5,86.5)"/><rect x="163" y="91" width="9" height="9" transform="rotate(0,167.5,95.5)"/><rect x="163" y="109" width="9" height="9" transform="rotate(0,167.5,113.5)"/><rect x="163" y="118" width="9" height="9" transform="rotate(0,167.5,122.5)"/><rect x="163" y="145" width="9" height="9" transform="rotate(0,167.5,149.5)"/><rect x="163" y="154" width="9" height="9" transform="rotate(0,167.5,158.5)"/><rect x="163" y="163" width="9" height="9" transform="rotate(0,167.5,167.5)"/><rect x="163" y="172" width="9" height="9" transform="rotate(0,167.5,176.5)"/><rect x="163" y="208" width="9" height="9" transform="rotate(0,167.5,212.5)"/><rect x="163" y="217" width="9" height="9" transform="rotate(0,167.5,221.5)"/><rect x="163" y="262" width="9" height="9" transform="rotate(0,167.5,266.5)"/><rect x="172" y="19" width="9" height="9" transform="rotate(0,176.5,23.5)"/><rect x="172" y="28" width="9" height="9" transform="rotate(0,176.5,32.5)"/><rect x="172" y="46" width="9" height="9" transform="rotate(0,176.5,50.5)"/><rect x="172" y="91" width="9" height="9" transform="rotate(0,176.5,95.5)"/><rect x="172" y="100" width="9" height="9" transform="rotate(0,176.5,104.5)"/><rect x="172" y="127" width="9" height="9" transform="rotate(0,176.5,131.5)"/><rect x="172" y="136" width="9" height="9" transform="rotate(0,176.5,140.5)"/><rect x="172" y="154" width="9" height="9" transform="rotate(0,176.5,158.5)"/><rect x="172" y="181" width="9" height="9" transform="rotate(0,176.5,185.5)"/><rect x="172" y="190" width="9" height="9" transform="rotate(0,176.5,194.5)"/><rect x="172" y="226" width="9" height="9" transform="rotate(0,176.5,230.5)"/><rect x="172" y="253" width="9" height="9" transform="rotate(0,176.5,257.5)"/><rect x="172" y="280" width="9" height="9" transform="rotate(0,176.5,284.5)"/><rect x="181" y="1" width="9" height="9" transform="rotate(0,185.5,5.5)"/><rect x="181" y="10" width="9" height="9" transform="rotate(0,185.5,14.5)"/><rect x="181" y="28" width="9" height="9" transform="rotate(0,185.5,32.5)"/><rect x="181" y="37" width="9" height="9" transform="rotate(0,185.5,41.5)"/><rect x="181" y="46" width="9" height="9" transform="rotate(0,185.5,50.5)"/><rect x="181" y="55" width="9" height="9" transform="rotate(0,185.5,59.5)"/><rect x="181" y="64" width="9" height="9" transform="rotate(0,185.5,68.5)"/><rect x="181" y="73" width="9" height="9" transform="rotate(0,185.5,77.5)"/><rect x="181" y="82" width="9" height="9" transform="rotate(0,185.5,86.5)"/><rect x="181" y="100" width="9" height="9" transform="rotate(0,185.5,104.5)"/><rect x="181" y="136" width="9" height="9" transform="rotate(0,185.5,140.5)"/><rect x="181" y="145" width="9" height="9" transform="rotate(0,185.5,149.5)"/><rect x="181" y="172" width="9" height="9" transform="rotate(0,185.5,176.5)"/><rect x="181" y="190" width="9" height="9" transform="rotate(0,185.5,194.5)"/><rect x="181" y="199" width="9" height="9" transform="rotate(0,185.5,203.5)"/><rect x="181" y="217" width="9" height="9" transform="rotate(0,185.5,221.5)"/><rect x="181" y="226" width="9" height="9" transform="rotate(0,185.5,230.5)"/><rect x="181" y="235" width="9" height="9" transform="rotate(0,185.5,239.5)"/><rect x="181" y="244" width="9" height="9" transform="rotate(0,185.5,248.5)"/><rect x="181" y="253" width="9" height="9" transform="rotate(0,185.5,257.5)"/><rect x="181" y="262" width="9" height="9" transform="rotate(0,185.5,266.5)"/><rect x="181" y="280" width="9" height="9" transform="rotate(0,185.5,284.5)"/><rect x="190" y="1" width="9" height="9" transform="rotate(0,194.5,5.5)"/><rect x="190" y="10" width="9" height="9" transform="rotate(0,194.5,14.5)"/><rect x="190" y="19" width="9" height="9" transform="rotate(0,194.5,23.5)"/><rect x="190" y="28" width="9" height="9" transform="rotate(0,194.5,32.5)"/><rect x="190" y="46" width="9" height="9" transform="rotate(0,194.5,50.5)"/><rect x="190" y="64" width="9" height="9" transform="rotate(0,194.5,68.5)"/><rect x="190" y="73" width="9" height="9" transform="rotate(0,194.5,77.5)"/><rect x="190" y="109" width="9" height="9" transform="rotate(0,194.5,113.5)"/><rect x="190" y="136" width="9" height="9" transform="rotate(0,194.5,140.5)"/><rect x="190" y="154" width="9" height="9" transform="rotate(0,194.5,158.5)"/><rect x="190" y="172" width="9" height="9" transform="rotate(0,194.5,176.5)"/><rect x="190" y="235" width="9" height="9" transform="rotate(0,194.5,239.5)"/><rect x="190" y="244" width="9" height="9" transform="rotate(0,194.5,248.5)"/><rect x="190" y="262" width="9" height="9" transform="rotate(0,194.5,266.5)"/><rect x="190" y="271" width="9" height="9" transform="rotate(0,194.5,275.5)"/><rect x="190" y="280" width="9" height="9" transform="rotate(0,194.5,284.5)"/><rect x="199" y="46" width="9" height="9" transform="rotate(0,203.5,50.5)"/><rect x="199" y="55" width="9" height="9" transform="rotate(0,203.5,59.5)"/><rect x="199" y="73" width="9" height="9" transform="rotate(0,203.5,77.5)"/><rect x="199" y="109" width="9" height="9" transform="rotate(0,203.5,113.5)"/><rect x="199" y="118" width="9" height="9" transform="rotate(0,203.5,122.5)"/><rect x="199" y="136" width="9" height="9" transform="rotate(0,203.5,140.5)"/><rect x="199" y="145" width="9" height="9" transform="rotate(0,203.5,149.5)"/><rect x="199" y="163" width="9" height="9" transform="rotate(0,203.5,167.5)"/><rect x="199" y="172" width="9" height="9" transform="rotate(0,203.5,176.5)"/><rect x="199" y="199" width="9" height="9" transform="rotate(0,203.5,203.5)"/><rect x="199" y="253" width="9" height="9" transform="rotate(0,203.5,257.5)"/><rect x="208" y="46" width="9" height="9" transform="rotate(0,212.5,50.5)"/><rect x="208" y="64" width="9" height="9" transform="rotate(0,212.5,68.5)"/><rect x="208" y="73" width="9" height="9" transform="rotate(0,212.5,77.5)"/><rect x="208" y="82" width="9" height="9" transform="rotate(0,212.5,86.5)"/><rect x="208" y="100" width="9" height="9" transform="rotate(0,212.5,104.5)"/><rect x="208" y="136" width="9" height="9" transform="rotate(0,212.5,140.5)"/><rect x="208" y="172" width="9" height="9" transform="rotate(0,212.5,176.5)"/><rect x="208" y="190" width="9" height="9" transform="rotate(0,212.5,194.5)"/><rect x="208" y="217" width="9" height="9" transform="rotate(0,212.5,221.5)"/><rect x="208" y="262" width="9" height="9" transform="rotate(0,212.5,266.5)"/><rect x="208" y="280" width="9" height="9" transform="rotate(0,212.5,284.5)"/><rect x="217" y="1" width="9" height="9" transform="rotate(0,221.5,5.5)"/><rect x="217" y="10" width="9" height="9" transform="rotate(0,221.5,14.5)"/><rect x="217" y="28" width="9" height="9" transform="rotate(0,221.5,32.5)"/><rect x="217" y="37" width="9" height="9" transform="rotate(0,221.5,41.5)"/><rect x="217" y="46" width="9" height="9" transform="rotate(0,221.5,50.5)"/><rect x="217" y="55" width="9" height="9" transform="rotate(0,221.5,59.5)"/><rect x="217" y="82" width="9" height="9" transform="rotate(0,221.5,86.5)"/><rect x="217" y="100" width="9" height="9" transform="rotate(0,221.5,104.5)"/><rect x="217" y="118" width="9" height="9" transform="rotate(0,221.5,122.5)"/><rect x="217" y="154" width="9" height="9" transform="rotate(0,221.5,158.5)"/><rect x="217" y="163" width="9" height="9" transform="rotate(0,221.5,167.5)"/><rect x="217" y="172" width="9" height="9" transform="rotate(0,221.5,176.5)"/><rect x="217" y="181" width="9" height="9" transform="rotate(0,221.5,185.5)"/><rect x="217" y="199" width="9" height="9" transform="rotate(0,221.5,203.5)"/><rect x="217" y="208" width="9" height="9" transform="rotate(0,221.5,212.5)"/><rect x="217" y="217" width="9" height="9" transform="rotate(0,221.5,221.5)"/><rect x="217" y="226" width="9" height="9" transform="rotate(0,221.5,230.5)"/><rect x="217" y="235" width="9" height="9" transform="rotate(0,221.5,239.5)"/><rect x="217" y="244" width="9" height="9" transform="rotate(0,221.5,248.5)"/><rect x="217" y="253" width="9" height="9" transform="rotate(0,221.5,257.5)"/><rect x="226" y="73" width="9" height="9" transform="rotate(0,230.5,77.5)"/><rect x="226" y="82" width="9" height="9" transform="rotate(0,230.5,86.5)"/><rect x="226" y="91" width="9" height="9" transform="rotate(0,230.5,95.5)"/><rect x="226" y="109" width="9" height="9" transform="rotate(0,230.5,113.5)"/><rect x="226" y="118" width="9" height="9" transform="rotate(0,230.5,122.5)"/><rect x="226" y="127" width="9" height="9" transform="rotate(0,230.5,131.5)"/><rect x="226" y="136" width="9" height="9" transform="rotate(0,230.5,140.5)"/><rect x="226" y="154" width="9" height="9" transform="rotate(0,230.5,158.5)"/><rect x="226" y="172" width="9" height="9" transform="rotate(0,230.5,176.5)"/><rect x="226" y="181" width="9" height="9" transform="rotate(0,230.5,185.5)"/><rect x="226" y="217" width="9" height="9" transform="rotate(0,230.5,221.5)"/><rect x="226" y="253" width="9" height="9" transform="rotate(0,230.5,257.5)"/><rect x="226" y="262" width="9" height="9" transform="rotate(0,230.5,266.5)"/><rect x="226" y="280" width="9" height="9" transform="rotate(0,230.5,284.5)"/><rect x="235" y="73" width="9" height="9" transform="rotate(0,239.5,77.5)"/><rect x="235" y="100" width="9" height="9" transform="rotate(0,239.5,104.5)"/><rect x="235" y="145" width="9" height="9" transform="rotate(0,239.5,149.5)"/><rect x="235" y="163" width="9" height="9" transform="rotate(0,239.5,167.5)"/><rect x="235" y="172" width="9" height="9" transform="rotate(0,239.5,176.5)"/><rect x="235" y="181" width="9" height="9" transform="rotate(0,239.5,185.5)"/><rect x="235" y="190" width="9" height="9" transform="rotate(0,239.5,194.5)"/><rect x="235" y="199" width="9" height="9" transform="rotate(0,239.5,203.5)"/><rect x="235" y="217" width="9" height="9" transform="rotate(0,239.5,221.5)"/><rect x="235" y="235" width="9" height="9" transform="rotate(0,239.5,239.5)"/><rect x="235" y="253" width="9" height="9" transform="rotate(0,239.5,257.5)"/><rect x="235" y="262" width="9" height="9" transform="rotate(0,239.5,266.5)"/><rect x="235" y="280" width="9" height="9" transform="rotate(0,239.5,284.5)"/><rect x="244" y="73" width="9" height="9" transform="rotate(0,248.5,77.5)"/><rect x="244" y="82" width="9" height="9" transform="rotate(0,248.5,86.5)"/><rect x="244" y="109" width="9" height="9" transform="rotate(0,248.5,113.5)"/><rect x="244" y="145" width="9" height="9" transform="rotate(0,248.5,149.5)"/><rect x="244" y="154" width="9" height="9" transform="rotate(0,248.5,158.5)"/><rect x="244" y="163" width="9" height="9" transform="rotate(0,248.5,167.5)"/><rect x="244" y="181" width="9" height="9" transform="rotate(0,248.5,185.5)"/><rect x="244" y="190" width="9" height="9" transform="rotate(0,248.5,194.5)"/><rect x="244" y="217" width="9" height="9" transform="rotate(0,248.5,221.5)"/><rect x="244" y="253" width="9" height="9" transform="rotate(0,248.5,257.5)"/><rect x="244" y="280" width="9" height="9" transform="rotate(0,248.5,284.5)"/><rect x="244" y="289" width="9" height="9" transform="rotate(0,248.5,293.5)"/><rect x="253" y="73" width="9" height="9" transform="rotate(0,257.5,77.5)"/><rect x="253" y="118" width="9" height="9" transform="rotate(0,257.5,122.5)"/><rect x="253" y="127" width="9" height="9" transform="rotate(0,257.5,131.5)"/><rect x="253" y="154" width="9" height="9" transform="rotate(0,257.5,158.5)"/><rect x="253" y="163" width="9" height="9" transform="rotate(0,257.5,167.5)"/><rect x="253" y="181" width="9" height="9" transform="rotate(0,257.5,185.5)"/><rect x="253" y="217" width="9" height="9" transform="rotate(0,257.5,221.5)"/><rect x="253" y="226" width="9" height="9" transform="rotate(0,257.5,230.5)"/><rect x="253" y="235" width="9" height="9" transform="rotate(0,257.5,239.5)"/><rect x="253" y="244" width="9" height="9" transform="rotate(0,257.5,248.5)"/><rect x="253" y="253" width="9" height="9" transform="rotate(0,257.5,257.5)"/><rect x="253" y="262" width="9" height="9" transform="rotate(0,257.5,266.5)"/><rect x="253" y="271" width="9" height="9" transform="rotate(0,257.5,275.5)"/><rect x="262" y="100" width="9" height="9" transform="rotate(0,266.5,104.5)"/><rect x="262" y="118" width="9" height="9" transform="rotate(0,266.5,122.5)"/><rect x="262" y="127" width="9" height="9" transform="rotate(0,266.5,131.5)"/><rect x="262" y="145" width="9" height="9" transform="rotate(0,266.5,149.5)"/><rect x="262" y="154" width="9" height="9" transform="rotate(0,266.5,158.5)"/><rect x="262" y="181" width="9" height="9" transform="rotate(0,266.5,185.5)"/><rect x="262" y="190" width="9" height="9" transform="rotate(0,266.5,194.5)"/><rect x="262" y="199" width="9" height="9" transform="rotate(0,266.5,203.5)"/><rect x="262" y="208" width="9" height="9" transform="rotate(0,266.5,212.5)"/><rect x="262" y="217" width="9" height="9" transform="rotate(0,266.5,221.5)"/><rect x="262" y="235" width="9" height="9" transform="rotate(0,266.5,239.5)"/><rect x="262" y="244" width="9" height="9" transform="rotate(0,266.5,248.5)"/><rect x="262" y="253" width="9" height="9" transform="rotate(0,266.5,257.5)"/><rect x="262" y="271" width="9" height="9" transform="rotate(0,266.5,275.5)"/><rect x="262" y="289" width="9" height="9" transform="rotate(0,266.5,293.5)"/><rect x="271" y="91" width="9" height="9" transform="rotate(0,275.5,95.5)"/><rect x="271" y="100" width="9" height="9" transform="rotate(0,275.5,104.5)"/><rect x="271" y="145" width="9" height="9" transform="rotate(0,275.5,149.5)"/><rect x="271" y="154" width="9" height="9" transform="rotate(0,275.5,158.5)"/><rect x="271" y="172" width="9" height="9" transform="rotate(0,275.5,176.5)"/><rect x="271" y="181" width="9" height="9" transform="rotate(0,275.5,185.5)"/><rect x="271" y="208" width="9" height="9" transform="rotate(0,275.5,212.5)"/><rect x="271" y="226" width="9" height="9" transform="rotate(0,275.5,230.5)"/><rect x="271" y="235" width="9" height="9" transform="rotate(0,275.5,239.5)"/><rect x="271" y="253" width="9" height="9" transform="rotate(0,275.5,257.5)"/><rect x="280" y="82" width="9" height="9" transform="rotate(0,284.5,86.5)"/><rect x="280" y="100" width="9" height="9" transform="rotate(0,284.5,104.5)"/><rect x="280" y="109" width="9" height="9" transform="rotate(0,284.5,113.5)"/><rect x="280" y="118" width="9" height="9" transform="rotate(0,284.5,122.5)"/><rect x="280" y="127" width="9" height="9" transform="rotate(0,284.5,131.5)"/><rect x="280" y="163" width="9" height="9" transform="rotate(0,284.5,167.5)"/><rect x="280" y="172" width="9" height="9" transform="rotate(0,284.5,176.5)"/><rect x="280" y="199" width="9" height="9" transform="rotate(0,284.5,203.5)"/><rect x="280" y="208" width="9" height="9" transform="rotate(0,284.5,212.5)"/><rect x="280" y="217" width="9" height="9" transform="rotate(0,284.5,221.5)"/><rect x="280" y="244" width="9" height="9" transform="rotate(0,284.5,248.5)"/><rect x="280" y="253" width="9" height="9" transform="rotate(0,284.5,257.5)"/><rect x="280" y="262" width="9" height="9" transform="rotate(0,284.5,266.5)"/><rect x="289" y="91" width="9" height="9" transform="rotate(0,293.5,95.5)"/><rect x="289" y="109" width="9" height="9" transform="rotate(0,293.5,113.5)"/><rect x="289" y="127" width="9" height="9" transform="rotate(0,293.5,131.5)"/><rect x="289" y="136" width="9" height="9" transform="rotate(0,293.5,140.5)"/><rect x="289" y="172" width="9" height="9" transform="rotate(0,293.5,176.5)"/><rect x="289" y="181" width="9" height="9" transform="rotate(0,293.5,185.5)"/><rect x="289" y="199" width="9" height="9" transform="rotate(0,293.5,203.5)"/><rect x="289" y="217" width="9" height="9" transform="rotate(0,293.5,221.5)"/><rect x="289" y="226" width="9" height="9" transform="rotate(0,293.5,230.5)"/><rect x="289" y="244" width="9" height="9" transform="rotate(0,293.5,248.5)"/><rect x="289" y="262" width="9" height="9" transform="rotate(0,293.5,266.5)"/><rect x="289" y="271" width="9" height="9" transform="rotate(0,293.5,275.5)"/><rect x="289" y="289" width="9" height="9" transform="rotate(0,293.5,293.5)"/></g><g class="corners-square-color-0-0"><rect x="1" y="1" width="9" height="9" transform="rotate(0,5.5,5.5)"/><rect x="1" y="10" width="9" height="9" transform="rotate(0,5.5,14.5)"/><rect x="1" y="19" width="9" height="9" transform="rotate(0,5.5,23.5)"/><rect x="1" y="28" width="9" height="9" transform="rotate(0,5.5,32.5)"/><rect x="1" y="37" width="9" height="9" transform="rotate(0,5.5,41.5)"/><rect x="1" y="46" width="9" height="9" transform="rotate(0,5.5,50.5)"/><rect x="1" y="55" width="9" height="9" transform="rotate(0,5.5,59.5)"/><rect x="10" y="1" width="9" height="9" transform="rotate(0,14.5,5.5)"/><rect x="10" y="55" width="9" height="9" transform="rotate(0,14.5,59.5)"/><rect x="19" y="1" width="9" height="9" transform="rotate(0,23.5,5.5)"/><rect x="19" y="55" width="9" height="9" transform="rotate(0,23.5,59.5)"/><rect x="28" y="1" width="9" height="9" transform="rotate(0,32.5,5.5)"/><rect x="28" y="55" width="9" height="9" transform="rotate(0,32.5,59.5)"/><rect x="37" y="1" width="9" height="9" transform="rotate(0,41.5,5.5)"/><rect x="37" y="55" width="9" height="9" transform="rotate(0,41.5,59.5)"/><rect x="46" y="1" width="9" height="9" transform="rotate(0,50.5,5.5)"/><rect x="46" y="55" width="9" height="9" transform="rotate(0,50.5,59.5)"/><rect x="55" y="1" width="9" height="9" transform="rotate(0,59.5,5.5)"/><rect x="55" y="10" width="9" height="9" transform="rotate(0,59.5,14.5)"/><rect x="55" y="19" width="9" height="9" transform="rotate(0,59.5,23.5)"/><rect x="55" y="28" width="9" height="9" transform="rotate(0,59.5,32.5)"/><rect x="55" y="37" width="9" height="9" transform="rotate(0,59.5,41.5)"/><rect x="55" y="46" width="9" height="9" transform="rotate(0,59.5,50.5)"/><rect x="55" y="55" width="9" height="9" transform="rotate(0,59.5,59.5)"/></g><g class="corners-dot-color-0-0"><rect x="19" y="19" width="9" height="9" transform="rotate(0,23.5,23.5)"/><rect x="19" y="28" width="9" height="9" transform="rotate(0,23.5,32.5)"/><rect x="19" y="37" width="9" height="9" transform="rotate(0,23.5,41.5)"/><rect x="28" y="19" width="9" height="9" transform="rotate(0,32.5,23.5)"/><rect x="28" y="28" width="9" height="9" transform="rotate(0,32.5,32.5)"/><rect x="28" y="37" width="9" height="9" transform="rotate(0,32.5,41.5)"/><rect x="37" y="19" width="9" height="9" transform="rotate(0,41.5,23.5)"/><rect x="37" y="28" width="9" height="9" transform="rotate(0,41.5,32.5)"/><rect x="37" y="37" width="9" height="9" transform="rotate(0,41.5,41.5)"/></g><g class="corners-square-color-1-0"><rect x="235" y="1" width="9" height="9" transform="rotate(0,239.5,5.5)"/><rect x="235" y="10" width="9" height="9" transform="rotate(0,239.5,14.5)"/><rect x="235" y="19" width="9" height="9" transform="rotate(0,239.5,23.5)"/><rect x="235" y="28" width="9" height="9" transform="rotate(0,239.5,32.5)"/><rect x="235" y="37" width="9" height="9" transform="rotate(0,239.5,41.5)"/><rect x="235" y="46" width="9" height="9" transform="rotate(0,239.5,50.5)"/><rect x="235" y="55" width="9" height="9" transform="rotate(0,239.5,59.5)"/><rect x="244" y="1" width="9" height="9" transform="rotate(0,248.5,5.5)"/><rect x="244" y="55" width="9" height="9" transform="rotate(0,248.5,59.5)"/><rect x="253" y="1" width="9" height="9" transform="rotate(0,257.5,5.5)"/><rect x="253" y="55" width="9" height="9" transform="rotate(0,257.5,59.5)"/><rect x="262" y="1" width="9" height="9" transform="rotate(0,266.5,5.5)"/><rect x="262" y="55" width="9" height="9" transform="rotate(0,266.5,59.5)"/><rect x="271" y="1" width="9" height="9" transform="rotate(0,275.5,5.5)"/><rect x="271" y="55" width="9" height="9" transform="rotate(0,275.5,59.5)"/><rect x="280" y="1" width="9" height="9" transform="rotate(0,284.5,5.5)"/><rect x="280" y="55" width="9" height="9" transform="rotate(0,284.5,59.5)"/><rect x="289" y="1" width="9" height="9" transform="rotate(0,293.5,5.5)"/><rect x="289" y="10" width="9" height="9" transform="rotate(0,293.5,14.5)"/><rect x="289" y="19" width="9" height="9" transform="rotate(0,293.5,23.5)"/><rect x="289" y="28" width="9" height="9" transform="rotate(0,293.5,32.5)"/><rect x="289" y="37" width="9" height="9" transform="rotate(0,293.5,41.5)"/><rect x="289" y="46" width="9" height="9" transform="rotate(0,293.5,50.5)"/><rect x="289" y="55" width="9" height="9" transform="rotate(0,293.5,59.5)"/></g><g class="corners-dot-color-1-0"><rect x="253" y="19" width="9" height="9" transform="rotate(0,257.5,23.5)"/><rect x="253" y="28" width="9" height="9" transform="rotate(0,257.5,32.5)"/><rect x="253" y="37" width="9" height="9" transform="rotate(0,257.5,41.5)"/><rect x="262" y="19" width="9" height="9" transform="rotate(0,266.5,23.5)"/><rect x="262" y="28" width="9" height="9" transform="rotate(0,266.5,32.5)"/><rect x="262" y="37" width="9" height="9" transform="rotate(0,266.5,41.5)"/><rect x="271" y="19" width="9" height="9" transform="rotate(0,275.5,23.5)"/><rect x="271" y="28" width="9" height="9" transform="rotate(0,275.5,32.5)"/><rect x="271" y="37" width="9" height="9" transform="rotate(0,275.5,41.5)"/></g><g class="corners-square-color-0-1"><rect x="1" y="235" width="9" height="9" transform="rotate(0,5.5,239.5)"/><rect x="1" y="244" width="9" height="9" transform="rotate(0,5.5,248.5)"/><rect x="1" y="253" width="9" height="9" transform="rotate(0,5.5,257.5)"/><rect x="1" y="262" width="9" height="9" transform="rotate(0,5.5,266.5)"/><rect x="1" y="271" width="9" height="9" transform="rotate(0,5.5,275.5)"/><rect x="1" y="280" width="9" height="9" transform="rotate(0,5.5,284.5)"/><rect x="1" y="289" width="9" height="9" transform="rotate(0,5.5,293.5)"/><rect x="10" y="235" width="9" height="9" transform="rotate(0,14.5,239.5)"/><rect x="10" y="289" width="9" height="9" transform="rotate(0,14.5,293.5)"/><rect x="19" y="235" width="9" height="9" transform="rotate(0,23.5,239.5)"/><rect x="19" y="289" width="9" height="9" transform="rotate(0,23.5,293.5)"/><rect x="28" y="235" width="9" height="9" transform="rotate(0,32.5,239.5)"/><rect x="28" y="289" width="9" height="9" transform="rotate(0,32.5,293.5)"/><rect x="37" y="235" width="9" height="9" transform="rotate(0,41.5,239.5)"/><rect x="37" y="289" width="9" height="9" transform="rotate(0,41.5,293.5)"/><rect x="46" y="235" width="9" height="9" transform="rotate(0,50.5,239.5)"/><rect x="46" y="289" width="9" height="9" transform="rotate(0,50.5,293.5)"/><rect x="55" y="235" width="9" height="9" transform="rotate(0,59.5,239.5)"/><rect x="55" y="244" width="9" height="9" transform="rotate(0,59.5,248.5)"/><rect x="55" y="253" width="9" height="9" transform="rotate(0,59.5,257.5)"/><rect x="55" y="262" width="9" height="9" transform="rotate(0,59.5,266.5)"/><rect x="55" y="271" width="9" height="9" transform="rotate(0,59.5,275.5)"/><rect x="55" y="280" width="9" height="9" transform="rotate(0,59.5,284.5)"/><rect x="55" y="289" width="9" height="9" transform="rotate(0,59.5,293.5)"/></g><g class="corners-dot-color-0-1"><rect x="19" y="253" width="9" height="9" transform="rotate(0,23.5,257.5)"/><rect x="19" y="262" width="9" height="9" transform="rotate(0,23.5,266.5)"/><rect x="19" y="271" width="9" height="9" transform="rotate(0,23.5,275.5)"/><rect x="28" y="253" width="9" height="9" transform="rotate(0,32.5,257.5)"/><rect x="28" y="262" width="9" height="9" transform="rotate(0,32.5,266.5)"/><rect x="28" y="271" width="9" height="9" transform="rotate(0,32.5,275.5)"/><rect x="37" y="253" width="9" height="9" transform="rotate(0,41.5,257.5)"/><rect x="37" y="262" width="9" height="9" transform="rotate(0,41.5,266.5)"/><rect x="37" y="271" width="9" height="9" transform="rotate(0,41.5,275.5)"/></g></svg></g></svg><g transform="translate(150,284)"><style>
               .small354{
                  fill:#ffffff;
                  font-size:16px;
                  font-family: Roboto, sans-serif;
                  }</style><text x="0" y="-11" text-anchor="middle" class="small354">BOWSER'S BIG BLAST</text></g></svg>